<svg width="230" height="91" viewBox="0 0 230 91" fill="none" xmlns="http://www.w3.org/2000/svg">
<path d="M18.645 54.045C15.0883 54.045 12.0817 53.4767 9.625 52.34C7.16833 51.2033 5.29833 49.645 4.015 47.665C2.76833 45.685 2.145 43.4117 2.145 40.845H9.79C9.79 41.945 10.0833 42.99 10.67 43.98C11.2567 44.97 12.1917 45.7767 13.475 46.4C14.795 47.0233 16.5183 47.335 18.645 47.335C21.505 47.335 23.65 46.7483 25.08 45.575C26.51 44.4017 27.225 42.9717 27.225 41.285C27.225 39.8917 26.62 38.755 25.41 37.875C24.2 36.995 22.33 36.445 19.8 36.225L16.28 35.95C12.43 35.62 9.35 34.4283 7.04 32.375C4.76667 30.285 3.63 27.535 3.63 24.125C3.63 21.595 4.21667 19.395 5.39 17.525C6.6 15.655 8.305 14.225 10.505 13.235C12.705 12.2083 15.2717 11.695 18.205 11.695C21.2117 11.695 23.815 12.2267 26.015 13.29C28.2517 14.3533 29.975 15.8567 31.185 17.8C32.395 19.7067 33 21.9617 33 24.565H25.355C25.355 22.9517 24.75 21.5217 23.54 20.275C22.3667 19.0283 20.5883 18.405 18.205 18.405C15.8583 18.405 14.1167 18.9733 12.98 20.11C11.8433 21.2467 11.275 22.585 11.275 24.125C11.275 25.3717 11.715 26.4717 12.595 27.425C13.5117 28.3417 14.9783 28.8733 16.995 29.02L20.515 29.35C23.375 29.6067 25.8683 30.23 27.995 31.22C30.1583 32.1733 31.845 33.4933 33.055 35.18C34.265 36.8667 34.87 38.9017 34.87 41.285C34.87 43.815 34.1917 46.0517 32.835 47.995C31.515 49.9017 29.645 51.3867 27.225 52.45C24.805 53.5133 21.945 54.045 18.645 54.045ZM45.6405 19.56C44.1372 19.56 43.0189 19.175 42.2855 18.405C41.5889 17.5983 41.2405 16.59 41.2405 15.38C41.2405 14.17 41.5889 13.18 42.2855 12.41C43.0189 11.64 44.1372 11.255 45.6405 11.255C47.1072 11.255 48.1889 11.64 48.8855 12.41C49.6189 13.18 49.9855 14.17 49.9855 15.38C49.9855 16.59 49.6189 17.5983 48.8855 18.405C48.1889 19.175 47.1072 19.56 45.6405 19.56ZM42.8355 53V28.855H38.6555V23.135H50.4805V53H42.8355ZM70.1263 53.935C66.0196 53.935 62.793 53.0733 60.4463 51.35C58.1363 49.59 56.9263 47.17 56.8163 44.09H63.6913C63.7646 45.1533 64.3146 46.1067 65.3413 46.95C66.4046 47.7567 68.0363 48.16 70.2363 48.16C72.033 48.16 73.4813 47.83 74.5813 47.17C75.6813 46.51 76.2313 45.6117 76.2313 44.475C76.2313 43.485 75.8096 42.715 74.9663 42.165C74.1596 41.5783 72.7663 41.175 70.7863 40.955L68.1463 40.68C64.773 40.3133 62.188 39.36 60.3913 37.82C58.6313 36.28 57.7513 34.2267 57.7513 31.66C57.7513 29.6433 58.2646 27.9383 59.2913 26.545C60.318 25.115 61.7296 24.0517 63.5263 23.355C65.3596 22.6217 67.4496 22.255 69.7963 22.255C73.463 22.255 76.433 23.08 78.7063 24.73C80.9796 26.3433 82.1713 28.69 82.2813 31.77H75.4063C75.2963 30.7433 74.7646 29.8633 73.8113 29.13C72.8946 28.3967 71.538 28.03 69.7413 28.03C68.128 28.03 66.8813 28.3417 66.0013 28.965C65.1213 29.5883 64.6813 30.395 64.6813 31.385C64.6813 32.3383 65.0296 33.0717 65.7263 33.585C66.423 34.0983 67.5963 34.4467 69.2463 34.63L71.8863 34.905C75.3696 35.2717 78.1196 36.2433 80.1363 37.82C82.153 39.3967 83.1613 41.5233 83.1613 44.2C83.1613 46.18 82.6113 47.9033 81.5113 49.37C80.448 50.8 78.9446 51.9183 77.0013 52.725C75.058 53.5317 72.7663 53.935 70.1263 53.935ZM102.457 53.385C99.7068 53.385 97.4335 53.0367 95.6368 52.34C93.8402 51.6067 92.5018 50.3967 91.6218 48.71C90.7785 47.0233 90.3568 44.7133 90.3568 41.78V28.745H85.6268V23.135H90.3568L90.4118 14.72H97.5618L97.5068 23.135H106.747V28.745H97.5068V42.275C97.5068 43.7417 97.8918 44.8783 98.6618 45.685C99.4685 46.455 100.605 46.84 102.072 46.84H106.747V53.385H102.457ZM126.367 54.045C123.801 54.045 121.546 53.605 119.602 52.725C117.696 51.845 116.101 50.6717 114.817 49.205C113.571 47.7017 112.617 46.0333 111.957 44.2C111.334 42.3667 111.022 40.4967 111.022 38.59V37.545C111.022 35.565 111.334 33.6583 111.957 31.825C112.617 29.9917 113.571 28.3417 114.817 26.875C116.101 25.4083 117.677 24.2533 119.547 23.41C121.417 22.53 123.581 22.09 126.037 22.09C129.264 22.09 131.959 22.805 134.122 24.235C136.286 25.6283 137.917 27.48 139.017 29.79C140.154 32.0633 140.722 34.52 140.722 37.16V39.91H118.282C118.539 42.2567 119.309 44.145 120.592 45.575C121.912 47.005 123.837 47.72 126.367 47.72C128.201 47.72 129.704 47.3533 130.877 46.62C132.087 45.85 132.857 44.915 133.187 43.815H140.227C139.567 46.895 138.009 49.37 135.552 51.24C133.096 53.11 130.034 54.045 126.367 54.045ZM126.037 28.415C123.874 28.415 122.151 29.02 120.867 30.23C119.584 31.44 118.759 33.1083 118.392 35.235H133.407C133.114 33.1083 132.344 31.44 131.097 30.23C129.887 29.02 128.201 28.415 126.037 28.415ZM147.109 53V23.135H153.159V30.45C154.405 24.95 157.65 22.2 162.894 22.2H163.224C167.954 22.2 171.07 24.455 172.574 28.965C174.04 24.455 177.157 22.2 181.924 22.2H182.254C185.664 22.2 188.249 23.3733 190.009 25.72C191.805 28.0667 192.704 31.4767 192.704 35.95V53H185.059V35.235C185.059 33.365 184.582 31.88 183.629 30.78C182.675 29.6433 181.319 29.075 179.559 29.075C177.762 29.075 176.332 29.6617 175.269 30.835C174.242 31.9717 173.729 33.5117 173.729 35.455V53H166.084V35.235C166.084 33.365 165.607 31.88 164.654 30.78C163.7 29.6433 162.344 29.075 160.584 29.075C158.787 29.075 157.357 29.6617 156.294 30.835C155.267 31.9717 154.754 33.5117 154.754 35.455V53H147.109ZM209.343 53.77C206.043 53.77 203.403 52.9267 201.423 51.24C199.48 49.5533 198.508 47.1883 198.508 44.145C198.508 40.8817 199.682 38.48 202.028 36.94C204.412 35.3633 207.602 34.575 211.598 34.575H217.703V34.3C217.703 30.89 215.98 29.185 212.533 29.185C211.617 29.185 210.517 29.2033 209.233 29.24C207.95 29.2767 206.648 29.3317 205.328 29.405C204.045 29.4417 202.89 29.4967 201.863 29.57V23.08C203.11 22.97 204.595 22.8783 206.318 22.805C208.078 22.7317 209.692 22.695 211.158 22.695C215.742 22.695 219.188 23.63 221.498 25.5C223.845 27.3333 225.018 30.3217 225.018 34.465V53H218.968V47.28C217.612 51.6067 214.403 53.77 209.343 53.77ZM211.488 48.325C212.515 48.325 213.487 48.1417 214.403 47.775C215.32 47.3717 216.072 46.7117 216.658 45.795C217.282 44.8417 217.63 43.5583 217.703 41.945V39.14H211.488C209.728 39.14 208.372 39.58 207.418 40.46C206.502 41.3033 206.043 42.4033 206.043 43.76C206.043 45.1533 206.502 46.2717 207.418 47.115C208.372 47.9217 209.728 48.325 211.488 48.325Z" fill="#ECE8DE"/>
<path d="M106.84 82L114.73 60.1H119.71L127.84 82H124.81L122.41 75.46H112.12L109.78 82H106.84ZM113.05 72.82H121.42L117.73 62.74H116.62L113.05 72.82ZM138.64 82.54C137.24 82.54 136.01 82.3 134.95 81.82C133.89 81.34 132.99 80.71 132.25 79.93C131.53 79.13 130.98 78.24 130.6 77.26C130.24 76.28 130.06 75.28 130.06 74.26V73.72C130.06 72.7 130.25 71.7 130.63 70.72C131.01 69.72 131.57 68.83 132.31 68.05C133.05 67.25 133.95 66.62 135.01 66.16C136.07 65.68 137.28 65.44 138.64 65.44C140 65.44 141.21 65.68 142.27 66.16C143.33 66.62 144.23 67.25 144.97 68.05C145.71 68.83 146.27 69.72 146.65 70.72C147.03 71.7 147.22 72.7 147.22 73.72V74.26C147.22 75.28 147.03 76.28 146.65 77.26C146.29 78.24 145.74 79.13 145 79.93C144.28 80.71 143.39 81.34 142.33 81.82C141.27 82.3 140.04 82.54 138.64 82.54ZM138.64 79.96C139.84 79.96 140.86 79.7 141.7 79.18C142.56 78.64 143.21 77.92 143.65 77.02C144.11 76.12 144.34 75.11 144.34 73.99C144.34 72.85 144.11 71.83 143.65 70.93C143.19 70.03 142.53 69.32 141.67 68.8C140.83 68.28 139.82 68.02 138.64 68.02C137.48 68.02 136.47 68.28 135.61 68.8C134.75 69.32 134.09 70.03 133.63 70.93C133.17 71.83 132.94 72.85 132.94 73.99C132.94 75.11 133.16 76.12 133.6 77.02C134.06 77.92 134.71 78.64 135.55 79.18C136.41 79.7 137.44 79.96 138.64 79.96ZM157.773 82.18C156.573 82.18 155.533 82.01 154.653 81.67C153.793 81.33 153.123 80.75 152.643 79.93C152.183 79.09 151.953 77.96 151.953 76.54V68.14H149.193V65.98H151.953V61.12H154.713V65.98H160.233V68.14H154.713V76.9C154.713 77.76 154.943 78.43 155.403 78.91C155.883 79.37 156.553 79.6 157.413 79.6H160.233V82.18H157.773ZM171 82.54C169.6 82.54 168.39 82.3 167.37 81.82C166.35 81.34 165.52 80.71 164.88 79.93C164.24 79.13 163.76 78.24 163.44 77.26C163.14 76.28 162.99 75.28 162.99 74.26V73.72C162.99 72.68 163.14 71.67 163.44 70.69C163.76 69.71 164.24 68.83 164.88 68.05C165.52 67.25 166.33 66.62 167.31 66.16C168.31 65.68 169.48 65.44 170.82 65.44C172.56 65.44 173.99 65.82 175.11 66.58C176.25 67.32 177.09 68.28 177.63 69.46C178.19 70.64 178.47 71.9 178.47 73.24V74.53H165.75C165.85 76.11 166.32 77.42 167.16 78.46C168 79.5 169.28 80.02 171 80.02C172.26 80.02 173.28 79.74 174.06 79.18C174.86 78.62 175.34 77.97 175.5 77.23H178.2C177.86 78.89 177.05 80.19 175.77 81.13C174.49 82.07 172.9 82.54 171 82.54ZM170.82 67.96C169.38 67.96 168.25 68.37 167.43 69.19C166.61 69.99 166.09 71.05 165.87 72.37H175.65C175.47 71.01 174.98 69.94 174.18 69.16C173.38 68.36 172.26 67.96 170.82 67.96ZM182.559 82V65.98H184.839V70.78C185.079 69.06 185.709 67.8 186.729 67C187.749 66.2 189.139 65.8 190.899 65.8H191.439V68.38H190.419C188.819 68.38 187.589 68.81 186.729 69.67C185.869 70.51 185.439 71.73 185.439 73.33V82H182.559ZM202.068 82.54C200.668 82.54 199.438 82.3 198.378 81.82C197.318 81.34 196.418 80.71 195.678 79.93C194.958 79.13 194.408 78.24 194.028 77.26C193.668 76.28 193.488 75.28 193.488 74.26V73.72C193.488 72.7 193.678 71.7 194.058 70.72C194.438 69.72 194.998 68.83 195.738 68.05C196.478 67.25 197.378 66.62 198.438 66.16C199.498 65.68 200.708 65.44 202.068 65.44C203.428 65.44 204.638 65.68 205.698 66.16C206.758 66.62 207.658 67.25 208.398 68.05C209.138 68.83 209.698 69.72 210.078 70.72C210.458 71.7 210.648 72.7 210.648 73.72V74.26C210.648 75.28 210.458 76.28 210.078 77.26C209.718 78.24 209.168 79.13 208.428 79.93C207.708 80.71 206.818 81.34 205.758 81.82C204.698 82.3 203.468 82.54 202.068 82.54ZM202.068 79.96C203.268 79.96 204.288 79.7 205.128 79.18C205.988 78.64 206.638 77.92 207.078 77.02C207.538 76.12 207.768 75.11 207.768 73.99C207.768 72.85 207.538 71.83 207.078 70.93C206.618 70.03 205.958 69.32 205.098 68.8C204.258 68.28 203.248 68.02 202.068 68.02C200.908 68.02 199.898 68.28 199.038 68.8C198.178 69.32 197.518 70.03 197.058 70.93C196.598 71.83 196.368 72.85 196.368 73.99C196.368 75.11 196.588 76.12 197.028 77.02C197.488 77.92 198.138 78.64 198.978 79.18C199.838 79.7 200.868 79.96 202.068 79.96ZM219.401 82.42C217.581 82.42 216.151 81.97 215.111 81.07C214.091 80.15 213.581 78.86 213.581 77.2C213.581 75.5 214.151 74.22 215.291 73.36C216.431 72.48 218.041 72.04 220.121 72.04H224.171V71.65C224.171 69.43 223.051 68.32 220.811 68.32C219.891 68.32 218.931 68.34 217.931 68.38C216.931 68.42 216.101 68.46 215.441 68.5V65.98C216.081 65.92 216.791 65.88 217.571 65.86C218.371 65.82 219.131 65.8 219.851 65.8C222.311 65.8 224.101 66.25 225.221 67.15C226.361 68.05 226.931 69.62 226.931 71.86V82H224.651V78.82C223.931 81.22 222.181 82.42 219.401 82.42ZM220.001 80.14C220.681 80.14 221.331 80.02 221.951 79.78C222.571 79.52 223.081 79.1 223.481 78.52C223.901 77.92 224.131 77.1 224.171 76.06V74.2H220.001C218.841 74.2 217.951 74.48 217.331 75.04C216.711 75.6 216.401 76.32 216.401 77.2C216.401 78.08 216.711 78.79 217.331 79.33C217.951 79.87 218.841 80.14 220.001 80.14Z" fill="#ECE8DE"/>
</svg>
